PathFileType	4	(X/Y/Z)	pose_F01_0-96.trc
DataRate	CameraRate	NumFrames	NumMarkers	Units	OrigDataRate	OrigDataStartFrame	OrigNumFrames
30	30	8	21	m	30	48	96
Frame#	Time	CHip			RHip			RKnee			RAnkle			RBigToe			RSmallToe			RHeel			LHip			LKnee			LAnkle			LBigToe			LSmallToe			LHeel			Neck			Nose			RShoulder			RElbow			RWrist			LShoulder			LElbow			LWrist			
		X1	Y1	Z1	X2	Y2	Z2	X3	Y3	Z3	X4	Y4	Z4	X5	Y5	Z5	X6	Y6	Z6	X7	Y7	Z7	X8	Y8	Z8	X9	Y9	Z9	X10	Y10	Z10	X11	Y11	Z11	X12	Y12	Z12	X13	Y13	Z13	X14	Y14	Z14	X15	Y15	Z15	X16	Y16	Z16	X17	Y17	Z17	X18	Y18	Z18	X19	Y19	Z19	X20	Y20	Z20	X21	Y21	Z21	
48	1.6	-0.1858661257035297	1.8684204957516426	-0.5660999490554935	-0.2040406890584619	1.8673917559096351	-0.5067526364589681	-0.18765406760044068	1.7178142669694876	-0.48417992999403014	-0.1779446620066488	1.5704659579367028	-0.47851117563598483							-0.17020207233300635	1.5589514806469904	-0.47670771973678716	-0.17403868880769444	1.8708456669635818	-0.633719987209027	-0.1636349193884829	1.7163818800912722	-0.6022016487290842	-0.16077980550148238	1.5735017446902062	-0.5667321043447804	-0.20015624992936698	1.5354292539237782	-0.5947351645308562	-0.18581750414056986	1.5419675629678264	-0.6094150515328912	-0.15846705005126308	1.559830209455994	-0.5591257728618414	-0.17499595404185891	2.0414747381609044	-0.5773824569717338	-0.21122774424928067	2.109668671332934	-0.5959617126193147	-0.19475574067399037	2.0370975450705484	-0.49689316179978155	-0.19664888631169458	1.9485557609035191	-0.4556142279066016	-0.224686663641728	1.8770363420159422	-0.4536166735106425	-0.15319512422160197	2.045198558650519	-0.6579621607853765	-1.4842341481388068	1.8725987184228319	0.7366661938193184	-0.15910381432056603	1.8827183317553817	-0.6926051028166963
49	1.6333333333333333	-0.1857032080463784	1.8696863757632383	-0.5662009749953126	-0.2039868440590224	1.8677072192187016	-0.5067371147578971	-0.18739964314621704	1.719017009027306	-0.4845030362064587	-0.18205225128817662	1.5706485044101441	-0.4741038635289515							-0.17237422790147827	1.556868238248231	-0.4742431087058717	-0.1731357110143304	1.8734741252590947	-0.6308646456249946	-0.1654894121708454	1.7173370696170678	-0.6002801966181719	-0.16048812788233616	1.5749064065398606	-0.5673457522981323	-0.1978040772866355	1.5340787759438443	-0.5972791300120767	-0.183669506172603	1.542086375474173	-0.6117129274532624	-0.15839203822057304	1.5597228149860516	-0.5591682509959073	-0.17586855579224636	2.0416286978294305	-0.5804303134978115	-0.2112220614544967	2.109652736624522	-0.5959539381314394	-0.19472722401787013	2.037109782811877	-0.49682925743826545	-0.19788909235300284	1.9471373275094213	-0.4500900517853409	-0.23860140982263534	1.8812420518163553	-0.4385560385892666	-0.1539889524186116	2.045709743578831	-0.6609754557571721	-1.484000526953125	1.8725194178228264	0.7363026563883351	-0.15657738116261544	1.8886474350588816	-0.7078851062276729
50	1.6666666666666667	-0.18635790462778198	1.8710424377792754	-0.5695126639905871	-0.20186279671964844	1.8686786801105666	-0.509250392035551	-0.18606924843806877	1.7218122285587207	-0.4908771388393213	-0.17898984088710104	1.5704642061791043	-0.473112906103184							-0.1718081087927946	1.5571600870171876	-0.47489808496812697	-0.1728233874842342	1.8734047298139476	-0.6308793628548053	-0.16511709343790443	1.719937473814896	-0.6009740220062908	-0.16098451732024982	1.5720007534451876	-0.5661622385810579	-0.19990909990183958	1.5337545125995955	-0.5949899777315681	-0.18611248776328573	1.5406944687072288	-0.608829832613791	-0.15642152916423321	1.5577556585321872	-0.5607170814276092	-0.17493974848649985	2.041453502297132	-0.5773368150972054	-0.21117310887381538	2.10834008215963	-0.5953575906875097	-0.19266392872160254	2.0382068236229114	-0.49052722031614926	-0.20359086824564784	1.9496197048749242	-0.4437938547825645	-0.25014213364185545	1.8849933912922496	-0.42597404519890214	-0.15399166412185059	2.0455471441042987	-0.6609475857807902	-1.471806252017939	1.8720757665415155	0.7226993685383339	-0.16136097684587766	1.8934408471510316	-0.7275257892021493
51	1.7	-0.18553416404554826	1.87137444777405	-0.5663979874105812	-0.2037957346911459	1.8689717663445997	-0.507082205021756	-0.18501288413332506	1.7214628993411978	-0.48745125822957297	-0.17963323415669466	1.5697676104266036	-0.474392955630538							-0.17227872560698387	1.5566700223206937	-0.4740965122487624	-0.17489695879649644	1.8738883968342352	-0.628556082888041	-0.16480329891253645	1.7208775594300008	-0.6013378014266058	-0.16047603725955994	1.5749099738965942	-0.5673583397746618	-0.19884151718392928	1.5344379440442308	-0.6005774553249499	-0.1845640139738027	1.5419389222385103	-0.6149849348642307	-0.15698473628353377	1.5600387734617265	-0.5566755228308198	-0.17492724547560248	2.0415166003265215	-0.5773268412773779	-0.21123104353167335	2.107250089021486	-0.5955137439592433	-0.19366717222173385	2.0371530252730587	-0.4937252370342365	-0.20577978013740145	1.9485470364358854	-0.4414426926269844	-0.26178254539187	1.8901465495456211	-0.41376405701474545	-0.15386400048135052	2.04557702571712	-0.6603994180881112	-1.473797641346044	1.8734915194027937	0.7253409506965269	-0.16366850073093286	1.9001356906524483	-0.7493350317565506
52	1.7333333333333334	-0.18764090490999338	1.8693583438465515	-0.5640047142674918	-0.2039368750773503	1.8673871977270289	-0.506807945981753	-0.18829991319830766	1.7213825216692322	-0.4882478098159078	-0.18027662742628828	1.5690710146741031	-0.475673005157892							-0.17274934242117315	1.5561799576242001	-0.4732949395293979	-0.17197948766839022	1.8733093237345773	-0.6275621644273619	-0.16550996609653812	1.7200509195426552	-0.6005467005139867	-0.16281096519100727	1.5732972829308043	-0.564549404905217	-0.200239734924841	1.53285280380053	-0.5943874303171768	-0.1839678836772185	1.5406871378454006	-0.6109894618573105	-0.15852089787154638	1.5576696540143966	-0.5585372223463769	-0.1740567376496246	2.0413443697596088	-0.5743034183968362	-0.21122191319507252	2.1073046066485333	-0.5954970638855568	-0.19368553407125053	2.0383935577112453	-0.4942220454973819	-0.20367618081193972	1.9522217347609163	-0.4442288288079182	-0.2566031222859711	1.894628799897085	-0.4152269421867691	-0.1530864767015546	2.0464864983011264	-0.6578514568112158	-1.4759868772672213	1.873489412265024	0.7277401767939436	-0.16217649233293976	1.9068091751024292	-0.7554227470777161
53	1.7666666666666666	-0.18779027926069905	1.8683690116541445	-0.5637676647770182	-0.2042331122759804	1.8654204161170878	-0.506403419880228	-0.18770564183419686	1.718561317865238	-0.4841925088211278	-0.17929763316472186	1.569218973704271	-0.4724806048993806							-0.17254951185487186	1.558023725593232	-0.4739586860372034	-0.17142957887172186	1.8708065925325588	-0.6240852389072414	-0.16544789452141884	1.719889943775586	-0.60052582761468	-0.16279949435746918	1.5733632986708037	-0.5646172720822802	-0.1977965762497698	1.5342179679988337	-0.5972315688891531	-0.18365073833314466	1.5420642901755315	-0.6116934732614852	-0.15830553319300178	1.558968729546755	-0.5591271081443031	-0.174065322675678	2.041266307179244	-0.5742005138120744	-0.21114196731210233	2.109649658456053	-0.5958420068321341	-0.19273183089228654	2.038226107095765	-0.4911045199612699	-0.200942781306513	1.9499697117046388	-0.4517802224154718	-0.2516428834992585	1.894477384127103	-0.41642911634773216	-0.15527161256971966	2.0450269274325077	-0.6556459308207382	-1.4892125078683611	1.8730774689669012	0.7479010287735696	-0.15893176717825905	1.9099943260495744	-0.7436751404508757
54	1.8	-0.1855346685472324	1.8707714829922704	-0.5663473045781172	-0.20382550821312653	1.8687430878508107	-0.5069248676961753	-0.18850208304774776	1.7200323495574852	-0.4879150638225827	-0.17903141554071017	1.5706068965087496	-0.47304819385257657							-0.17229217497735916	1.5581574233111926	-0.47442025360320444	-0.17195794579356644	1.8734434229913768	-0.6276514063796199	-0.16334859705824326	1.7199604809153843	-0.6027695671979407	-0.16099128118239134	1.5719566190407246	-0.5660977579731828	-0.1983419337433051	1.5341335055802097	-0.5963515597300679	-0.18395615959937742	1.54073363323419	-0.6110622566132824	-0.1576105492182744	1.557608636484583	-0.5554021105552601	-0.1740551114782248	2.0412826343173953	-0.5742760550985607	-0.21117861606126892	2.1096968668692258	-0.5958258074867724	-0.1927734786882209	2.0369587836680694	-0.4905692610931828	-0.19692296604545428	1.9499455758311117	-0.45635499746928737	-0.24593925822789825	1.8884432719856585	-0.41342951331365313	-0.15314426402042475	2.045295608712954	-0.6579943566440004	-1.4913568249155487	1.8713267103982199	0.7497687587586648	-0.15227710721849466	1.9023216695527683	-0.7380305080286843
55	1.8333333333333333	-0.18764164400344222	1.86928566794232	-0.5639670474503409	-0.20386344867044717	1.8686451392655414	-0.5068772678129602	-0.18859198009028685	1.7205340643780125	-0.48793459747886647	-0.1791275359996375	1.571012790255014	-0.47308662810126106							-0.17203483809984646	1.558291121029153	-0.47488182116920546	-0.17125463872670327	1.8718422568560058	-0.6242193968495197	-0.16530439127504465	1.7186377668314095	-0.600597077044972	-0.1612059446263554	1.5734141610718728	-0.5659486030737659	-0.20116434655568563	1.5325945415974849	-0.5976935546625157	-0.1861088984073393	1.5405970307997319	-0.6088854766250431	-0.15667988437714606	1.5589280374727692	-0.5607791772529211	-0.17406428592116968	2.041407337178002	-0.5743006449793782	-0.21115795741627258	2.1097024409931615	-0.5958661726299085	-0.19375063697983333	2.0383349356832237	-0.49422868377195656	-0.1909064205660833	1.9512408359597049	-0.46319591422596507	-0.2313746580774143	1.8855587726904255	-0.41615355436096785	-0.15314353993636198	2.0453709721694118	-0.6579305065370395	-0.14062017569259755	1.9579335758874614	-0.6864012168292646	-0.15385295315462627	1.8912154340570628	-0.7310986862837587
